<mxfile host="drawio-plugin" modified="2023-08-22T06:25:23.089Z" agent="5.0 (Windows NT 6.2; Win64; x64) AppleWebKit/537.36 (KHTML, like Gecko) Chrome/89.0.4389.114 Safari/537.36" etag="fv3bO2B8dPrHaMfGQJwV" version="20.5.3" type="embed" pages="2"><diagram name="第 1 页" id="vPIv7v9KjqWipbJg1ccF"><mxGraphModel dx="224" dy="273" grid="1" gridSize="10" guides="1" tooltips="1" connect="1" arrows="1" fold="1" page="1" pageScale="1" pageWidth="827" pageHeight="1169" math="0" shadow="0"><root><mxCell id="0"/><mxCell id="1" parent="0"/><mxCell id="HTZZaEhNrZxuNu7yJhxI-6" style="rounded=0;orthogonalLoop=1;jettySize=auto;html=1;" parent="1" source="HTZZaEhNrZxuNu7yJhxI-1" target="HTZZaEhNrZxuNu7yJhxI-5" edge="1"><mxGeometry relative="1" as="geometry"/></mxCell><mxCell id="HTZZaEhNrZxuNu7yJhxI-14" style="rounded=0;orthogonalLoop=1;jettySize=auto;html=1;" parent="1" source="HTZZaEhNrZxuNu7yJhxI-1" target="HTZZaEhNrZxuNu7yJhxI-9" edge="1"><mxGeometry relative="1" as="geometry"/></mxCell><mxCell id="HTZZaEhNrZxuNu7yJhxI-1" value="2" style="ellipse;whiteSpace=wrap;html=1;aspect=fixed;" parent="1" vertex="1"><mxGeometry x="190" y="260" width="30" height="30" as="geometry"/></mxCell><mxCell id="HTZZaEhNrZxuNu7yJhxI-5" value="1" style="ellipse;whiteSpace=wrap;html=1;aspect=fixed;" parent="1" vertex="1"><mxGeometry x="110" y="310" width="30" height="30" as="geometry"/></mxCell><mxCell id="HTZZaEhNrZxuNu7yJhxI-7" value="4" style="ellipse;whiteSpace=wrap;html=1;aspect=fixed;fillColor=#f8cecc;strokeColor=#b85450;" parent="1" vertex="1"><mxGeometry x="220" y="380" width="30" height="30" as="geometry"/></mxCell><mxCell id="HTZZaEhNrZxuNu7yJhxI-12" style="rounded=0;orthogonalLoop=1;jettySize=auto;html=1;" parent="1" source="HTZZaEhNrZxuNu7yJhxI-9" target="HTZZaEhNrZxuNu7yJhxI-11" edge="1"><mxGeometry relative="1" as="geometry"/></mxCell><mxCell id="HTZZaEhNrZxuNu7yJhxI-16" style="rounded=0;orthogonalLoop=1;jettySize=auto;html=1;" parent="1" source="HTZZaEhNrZxuNu7yJhxI-9" target="HTZZaEhNrZxuNu7yJhxI-7" edge="1"><mxGeometry relative="1" as="geometry"/></mxCell><mxCell id="HTZZaEhNrZxuNu7yJhxI-9" value="5" style="ellipse;whiteSpace=wrap;html=1;" parent="1" vertex="1"><mxGeometry x="269" y="320" width="30" height="30" as="geometry"/></mxCell><mxCell id="HTZZaEhNrZxuNu7yJhxI-11" value="6" style="ellipse;whiteSpace=wrap;html=1;aspect=fixed;" parent="1" vertex="1"><mxGeometry x="313" y="380" width="30" height="30" as="geometry"/></mxCell><mxCell id="HTZZaEhNrZxuNu7yJhxI-17" style="rounded=0;orthogonalLoop=1;jettySize=auto;html=1;" parent="1" source="HTZZaEhNrZxuNu7yJhxI-19" target="HTZZaEhNrZxuNu7yJhxI-20" edge="1"><mxGeometry relative="1" as="geometry"/></mxCell><mxCell id="HTZZaEhNrZxuNu7yJhxI-26" style="rounded=0;orthogonalLoop=1;jettySize=auto;html=1;entryX=0;entryY=0;entryDx=0;entryDy=0;" parent="1" source="HTZZaEhNrZxuNu7yJhxI-19" target="HTZZaEhNrZxuNu7yJhxI-21" edge="1"><mxGeometry relative="1" as="geometry"/></mxCell><mxCell id="HTZZaEhNrZxuNu7yJhxI-19" value="2" style="ellipse;whiteSpace=wrap;html=1;aspect=fixed;" parent="1" vertex="1"><mxGeometry x="231" y="100" width="30" height="30" as="geometry"/></mxCell><mxCell id="HTZZaEhNrZxuNu7yJhxI-20" value="1" style="ellipse;whiteSpace=wrap;html=1;aspect=fixed;" parent="1" vertex="1"><mxGeometry x="151" y="150" width="30" height="30" as="geometry"/></mxCell><mxCell id="HTZZaEhNrZxuNu7yJhxI-27" style="rounded=0;orthogonalLoop=1;jettySize=auto;html=1;" parent="1" source="HTZZaEhNrZxuNu7yJhxI-21" target="HTZZaEhNrZxuNu7yJhxI-24" edge="1"><mxGeometry relative="1" as="geometry"/></mxCell><mxCell id="HTZZaEhNrZxuNu7yJhxI-21" value="4" style="ellipse;whiteSpace=wrap;html=1;aspect=fixed;fillColor=#f8cecc;strokeColor=#b85450;" parent="1" vertex="1"><mxGeometry x="280" y="150" width="30" height="30" as="geometry"/></mxCell><mxCell id="HTZZaEhNrZxuNu7yJhxI-22" style="rounded=0;orthogonalLoop=1;jettySize=auto;html=1;" parent="1" source="HTZZaEhNrZxuNu7yJhxI-24" target="HTZZaEhNrZxuNu7yJhxI-25" edge="1"><mxGeometry relative="1" as="geometry"/></mxCell><mxCell id="HTZZaEhNrZxuNu7yJhxI-24" value="5" style="ellipse;whiteSpace=wrap;html=1;" parent="1" vertex="1"><mxGeometry x="321" y="200" width="30" height="30" as="geometry"/></mxCell><mxCell id="HTZZaEhNrZxuNu7yJhxI-25" value="6" style="ellipse;whiteSpace=wrap;html=1;aspect=fixed;" parent="1" vertex="1"><mxGeometry x="365" y="260" width="30" height="30" as="geometry"/></mxCell></root></mxGraphModel></diagram><diagram id="l-y7qTReCH2F2VSjbkRK" name="spring-step-01"><mxGraphModel dx="224" dy="273" grid="1" gridSize="10" guides="1" tooltips="1" connect="1" arrows="1" fold="1" page="1" pageScale="1" pageWidth="827" pageHeight="1169" math="0" shadow="0"><root><mxCell id="0"/><mxCell id="1" parent="0"/><mxCell id="UeLBFXE8KaEtFmJq-XN3-5" value="BeanDefinition&lt;br&gt;" style="swimlane;fontStyle=1;align=center;verticalAlign=top;childLayout=stackLayout;horizontal=1;startSize=26;horizontalStack=0;resizeParent=1;resizeParentMax=0;resizeLast=0;collapsible=1;marginBottom=0;whiteSpace=wrap;html=1;" parent="1" vertex="1"><mxGeometry x="200" y="110" width="160" height="90" as="geometry"/></mxCell><mxCell id="UeLBFXE8KaEtFmJq-XN3-6" value="- bean: Object" style="text;strokeColor=none;fillColor=none;align=left;verticalAlign=top;spacingLeft=4;spacingRight=4;overflow=hidden;rotatable=0;points=[[0,0.5],[1,0.5]];portConstraint=eastwest;whiteSpace=wrap;html=1;" parent="UeLBFXE8KaEtFmJq-XN3-5" vertex="1"><mxGeometry y="26" width="160" height="26" as="geometry"/></mxCell><mxCell id="UeLBFXE8KaEtFmJq-XN3-7" value="" style="line;strokeWidth=1;fillColor=none;align=left;verticalAlign=middle;spacingTop=-1;spacingLeft=3;spacingRight=3;rotatable=0;labelPosition=right;points=[];portConstraint=eastwest;strokeColor=inherit;" parent="UeLBFXE8KaEtFmJq-XN3-5" vertex="1"><mxGeometry y="52" width="160" height="8" as="geometry"/></mxCell><mxCell id="UeLBFXE8KaEtFmJq-XN3-8" value="+ getBean(): Object" style="text;strokeColor=none;fillColor=none;align=left;verticalAlign=top;spacingLeft=4;spacingRight=4;overflow=hidden;rotatable=0;points=[[0,0.5],[1,0.5]];portConstraint=eastwest;whiteSpace=wrap;html=1;" parent="UeLBFXE8KaEtFmJq-XN3-5" vertex="1"><mxGeometry y="60" width="160" height="30" as="geometry"/></mxCell><mxCell id="UeLBFXE8KaEtFmJq-XN3-13" value="BeanFactory" style="swimlane;fontStyle=1;align=center;verticalAlign=top;childLayout=stackLayout;horizontal=1;startSize=26;horizontalStack=0;resizeParent=1;resizeParentMax=0;resizeLast=0;collapsible=1;marginBottom=0;whiteSpace=wrap;html=1;" parent="1" vertex="1"><mxGeometry x="115" y="300" width="330" height="120" as="geometry"/></mxCell><mxCell id="UeLBFXE8KaEtFmJq-XN3-14" value="- beanDefinitionMap: Map&amp;lt;String,BeanDefinition&amp;gt;" style="text;strokeColor=none;fillColor=none;align=left;verticalAlign=top;spacingLeft=4;spacingRight=4;overflow=hidden;rotatable=0;points=[[0,0.5],[1,0.5]];portConstraint=eastwest;whiteSpace=wrap;html=1;" parent="UeLBFXE8KaEtFmJq-XN3-13" vertex="1"><mxGeometry y="26" width="330" height="24" as="geometry"/></mxCell><mxCell id="UeLBFXE8KaEtFmJq-XN3-15" value="" style="line;strokeWidth=1;fillColor=none;align=left;verticalAlign=middle;spacingTop=-1;spacingLeft=3;spacingRight=3;rotatable=0;labelPosition=right;points=[];portConstraint=eastwest;strokeColor=inherit;" parent="UeLBFXE8KaEtFmJq-XN3-13" vertex="1"><mxGeometry y="50" width="330" height="20" as="geometry"/></mxCell><mxCell id="UeLBFXE8KaEtFmJq-XN3-16" value="+ getBean(String):BeanDefinition&lt;br&gt;+ registerBeanDefinition(String name, BeanDefinition)" style="text;strokeColor=none;fillColor=none;align=left;verticalAlign=top;spacingLeft=4;spacingRight=4;overflow=hidden;rotatable=0;points=[[0,0.5],[1,0.5]];portConstraint=eastwest;whiteSpace=wrap;html=1;" parent="UeLBFXE8KaEtFmJq-XN3-13" vertex="1"><mxGeometry y="70" width="330" height="50" as="geometry"/></mxCell><mxCell id="UeLBFXE8KaEtFmJq-XN3-20" value="Use" style="endArrow=open;endSize=12;dashed=1;html=1;rounded=0;exitX=0.5;exitY=0;exitDx=0;exitDy=0;" parent="1" source="UeLBFXE8KaEtFmJq-XN3-13" target="UeLBFXE8KaEtFmJq-XN3-8" edge="1"><mxGeometry width="160" relative="1" as="geometry"><mxPoint x="320" y="260" as="sourcePoint"/><mxPoint x="480" y="260" as="targetPoint"/></mxGeometry></mxCell></root></mxGraphModel></diagram></mxfile>